<?xml version="1.0" standalone="no"?>
<!DOCTYPE svg PUBLIC "-//W3C//DTD SVG 20010904//EN"
 "http://www.w3.org/TR/2001/REC-SVG-20010904/DTD/svg10.dtd">
<svg version="1.0" xmlns="http://www.w3.org/2000/svg"
 width="180.000000pt" height="180.000000pt" viewBox="0 0 180.000000 180.000000"
 preserveAspectRatio="xMidYMid meet">
<metadata>
Created by potrace 1.15, written by Peter Selinger 2001-2017
</metadata>
<g transform="translate(0.000000,180.000000) scale(0.100000,-0.100000)"
fill="#000000" stroke="none">
<path d="M874 1668 c-3 -5 5 -21 17 -35 21 -22 21 -24 4 -15 -48 27 -95 38
-167 41 -113 4 -149 -12 -85 -38 31 -13 30 -13 -63 -26 -107 -15 -246 -57
-302 -92 -21 -13 -41 -23 -45 -23 -5 0 -26 -16 -48 -35 -34 -29 -37 -35 -20
-36 11 -1 27 -3 35 -5 8 -1 35 -3 60 -3 l45 -2 -29 -16 c-35 -18 -110 -94
-134 -135 -9 -15 -19 -28 -23 -28 -4 0 -10 -13 -14 -30 -4 -16 -11 -32 -16
-35 -10 -7 -13 -55 -3 -55 3 0 25 15 47 32 33 26 39 29 33 13 -20 -54 -18 -75
16 -142 47 -92 61 -117 73 -125 6 -4 -2 -19 -18 -36 -69 -72 8 -247 125 -283
34 -11 40 -10 71 14 27 20 37 23 53 14 10 -6 24 -12 29 -14 6 -1 35 -9 65 -18
30 -8 87 -18 127 -21 l71 -7 4 -37 3 -37 -64 -11 c-36 -6 -76 -20 -90 -30
l-26 -19 3 -164 c2 -116 6 -165 15 -171 6 -4 28 -8 49 -8 l36 0 -21 49 c-24
58 -19 70 44 102 41 20 88 28 59 9 -8 -5 -10 -10 -4 -10 10 0 241 72 373 117
l55 18 43 114 c24 63 50 125 59 138 21 33 73 63 107 63 40 0 30 -19 -18 -36
-22 -7 -50 -26 -62 -41 -34 -42 -27 -47 10 -7 24 26 43 37 75 41 33 4 42 3 42
-9 0 -9 -14 -21 -30 -28 -41 -17 -78 -46 -91 -73 -9 -17 -4 -15 22 9 38 36 70
54 93 54 30 0 16 -29 -25 -52 -22 -13 -50 -38 -61 -55 l-20 -33 36 15 c45 19
80 19 96 0 7 -8 11 -15 9 -16 -2 0 -29 -6 -59 -12 -55 -12 -55 -12 -92 -82
-20 -38 -42 -73 -50 -77 -40 -22 -374 -155 -438 -174 -59 -18 -68 -23 -42 -23
33 -1 168 46 289 100 73 33 82 30 83 -26 0 -42 10 -75 22 -75 7 0 8 14 4 35
-3 19 -9 50 -12 69 -6 33 -5 34 42 51 27 9 57 21 67 26 13 7 32 3 70 -15 61
-28 157 -49 207 -44 49 4 62 38 65 163 l3 100 31 3 c29 3 31 6 31 46 0 23 9
59 20 81 29 57 24 118 -12 156 -19 21 -47 80 -50 109 -2 19 -10 26 -30 28 -32
4 -32 5 -13 92 23 103 20 153 -11 190 -49 57 -125 77 -169 44 -11 -8 -35 -19
-55 -24 -44 -12 -88 -66 -105 -129 -7 -25 -14 -37 -14 -26 -2 24 -33 125 -45
143 -5 9 -22 13 -46 10 l-37 -3 -1 75 c-2 103 -21 218 -42 260 -36 69 -218
207 -236 178z m-44 -390 c0 -34 24 -31 57 7 18 21 33 44 33 52 0 66 148 -143
191 -270 29 -85 32 -228 5 -277 -26 -48 -119 -144 -190 -197 -58 -43 -59 -43
-140 -43 -89 0 -245 29 -293 53 -57 30 -126 148 -158 272 -14 53 -23 260 -12
271 2 2 20 -3 40 -11 20 -8 50 -15 67 -15 l30 0 -25 50 c-14 27 -25 54 -25 59
0 6 21 -3 48 -19 50 -31 161 -65 173 -52 4 4 4 26 0 50 -5 23 -7 42 -5 42 1 0
17 -29 35 -65 25 -49 36 -62 46 -54 23 20 73 131 85 191 l12 59 13 -43 c7 -24
13 -51 13 -60z m745 -118 c17 -11 40 -35 50 -53 17 -32 17 -37 1 -115 -24
-118 -55 -212 -70 -212 -7 0 -23 11 -36 25 -19 20 -33 25 -72 25 -26 0 -48 5
-48 10 0 6 -9 23 -20 38 -17 23 -18 33 -9 67 22 86 22 85 3 85 -14 0 -15 -3
-6 -8 22 -14 3 -43 -27 -40 -31 4 -39 35 -20 80 12 30 14 30 66 25 29 -3 53
-4 53 -2 0 2 -18 9 -41 15 -34 9 -38 14 -29 26 17 20 57 17 110 -7 54 -24 41
-8 -15 20 -40 19 -40 19 -13 26 17 4 42 0 72 -14 55 -24 61 -19 9 8 -33 18
-35 20 -14 21 13 0 38 -9 56 -20z m-340 -57 c11 -24 20 -69 23 -120 6 -104 -9
-133 -67 -133 l-38 0 -7 125 c-8 141 -2 165 42 165 23 0 32 -8 47 -37z m111
-176 c-4 -20 0 -37 15 -55 l20 -26 -25 -13 c-17 -9 -23 -19 -19 -32 3 -10 0
-22 -6 -25 -16 -10 -14 -49 4 -72 21 -28 18 -60 -8 -77 -13 -8 -31 -34 -42
-56 l-18 -42 -19 30 c-11 17 -35 40 -53 51 -48 30 -109 13 -166 -45 l-43 -44
-18 31 -19 30 48 41 c26 23 55 51 64 62 58 66 68 81 78 114 10 35 13 37 46 33
56 -7 82 17 96 87 l11 58 30 -11 c26 -9 29 -15 24 -39z m-1024 -124 c21 -20
38 -42 38 -48 0 -6 20 -41 45 -78 l44 -66 -26 -21 c-32 -25 -40 -25 -83 1 -43
27 -55 41 -85 104 -29 58 -32 101 -8 127 23 25 32 23 75 -19z m640 -276 c25
-39 26 -43 10 -60 -36 -40 -134 -61 -160 -35 -7 7 -12 31 -12 54 0 41 1 42 39
49 22 3 47 13 58 20 27 21 36 18 65 -28z m662 -73 c10 -26 7 -211 -4 -240 -10
-26 -12 -27 -69 -21 -56 6 -186 48 -204 66 -15 15 34 112 60 122 43 16 53 11
53 -23 0 -18 5 -40 10 -48 7 -11 10 -2 10 33 0 46 1 47 30 47 24 0 35 8 56 40
28 42 48 50 58 24z m-690 -159 c17 -17 22 -27 13 -30 -54 -20 -131 -45 -132
-43 -16 19 -33 69 -29 84 3 11 26 31 52 46 l46 26 13 -29 c6 -16 23 -40 37
-54z"/>
<path d="M907 1116 c-66 -18 -107 -59 -107 -107 0 -21 8 -47 19 -60 28 -34
102 -32 164 5 56 32 71 57 63 101 -12 61 -60 83 -139 61z m99 -14 c16 -10 34
-48 34 -69 0 -27 -48 -70 -99 -88 -57 -20 -73 -19 -105 6 -50 39 -27 106 48
140 42 19 102 25 122 11z"/>
<path d="M485 966 c-62 -29 -79 -48 -79 -93 0 -41 40 -83 79 -83 52 0 129 23
152 46 34 34 31 87 -6 125 -37 36 -77 38 -146 5z m155 -26 c34 -63 -5 -115
-98 -132 -94 -17 -136 14 -118 86 17 70 185 105 216 46z"/>
</g>
</svg>
